# xmcd
#
# Track frame offsets: 
#        150
#        11432
#        25390
#        41777
#        58865
#        74105
#        93290
#        107282
#        122362
#        139150
#        157587
#        175012
#
# Disc length: 2523 seconds
#
# Revision: 2
# Processed by: cddbd v1.5.2PL0 Copyright (c) Steve Scherf et al.
# Submitted via: ExactAudioCopy v0.99pb3
#
DISCID=9409d90c
DTITLE=Laura Cantrell - When The Roses Bloom Again
DYEAR=2002
DGENRE=Country
TTITLE0=Too Late For Tonight
TTITLE1=All The Same To You
TTITLE2=Early Years
TTITLE3=Don't Break The Heart
TTITLE4=Wait
TTITLE5=Mountain Fern
TTITLE6=Vaguest Idea
TTITLE7=Yonder Comes A Freight Train
TTITLE8=Broken Again
TTITLE9=When The Roses Bloom Again
TTITLE10=Conqueror's Song
TTITLE11=Oh So Many Years
EXTD=
EXTT0=
EXTT1=
EXTT2=
EXTT3=
EXTT4=
EXTT5=
EXTT6=
EXTT7=
EXTT8=
EXTT9=
EXTT10=
EXTT11=
PLAYORDER=
